<?xml version="1.0"?>
<svg version="1.1" xmlns="http://www.w3.org/2000/svg" width="400" height="200" style="border: dashed 2px #aaa"><path fill="#" d="M31.832,102.112c0,4.96-3.744,7.392-8.448,7.392c-0.256,0-1.696-0.064-1.92-0.096l0,7.104c0,0.48-0.192,0.768-0.8,0.768l-2.56,0c-0.512,0-0.768-0.224-0.768-0.864l0-20.416c0-0.64,0.192-0.864,0.8-0.864l4.64,0c3.392,0,5.888,0.64,7.456,2.432c1.024,1.184,1.6,2.816,1.6,4.544z M27.672,102.272c0-2.912-1.792-3.936-4.544-3.936l-1.664,0l0,7.936c0.256,0,1.696,0.032,1.888,0.032c2.72,0,4.32-1.28,4.32-4.032z M50.696,116.64c0,0.48-0.096,0.64-0.512,0.64l-2.816,0c-0.448,0-0.544-0.128-0.544-0.64l0-8.896c0-1.728-0.48-3.008-2.4-3.008c-1.248,0-2.848,0.672-3.84,1.536l0,10.368c0,0.48-0.128,0.64-0.608,0.64l-2.752,0c-0.384,0-0.512-0.16-0.512-0.576l0-21.152c0-0.576,0.256-0.736,0.704-0.8l2.208-0.288c0.128-0.032,0.288-0.032,0.416-0.032c0.352,0,0.544,0.16,0.544,0.608l0,8.032c1.344-1.12,3.36-1.728,5.056-1.728c3.584,0,5.056,2.272,5.056,5.728l0,9.568z M71.128,109.504c0,4.608-2.816,8.16-7.808,8.16c-5.216,0-7.616-3.52-7.616-8.192c0-4.608,2.816-8.128,7.808-8.128c5.216,0,7.616,3.456,7.616,8.16z M67.128,109.504c0-2.624-0.832-5.12-3.648-5.12c-2.848,0-3.776,2.464-3.776,5.024c0,2.624,0.8,5.216,3.648,5.216c2.816,0,3.776-2.496,3.776-5.12z M85.8,116.32c0,0.32-0.16,0.48-0.48,0.608c-0.992,0.416-2.304,0.736-3.584,0.736c-1.632,0-3.04-0.416-3.84-1.344c-0.992-1.12-1.024-2.432-1.024-4.768l0-7.136l-1.504,0c-0.608,0-0.704-0.128-0.704-0.8l0-1.216c0-0.384,0.192-0.64,0.576-0.64l1.632,0l0-3.488c0-0.544,0.288-0.704,0.8-0.768l2.304-0.288l0.16,0c0.416,0,0.608,0.224,0.608,0.704l0,3.84l3.616,0c0.384,0,0.608,0.128,0.608,0.544l0,1.504c0,0.384-0.256,0.608-0.64,0.608l-3.584,0l0,7.328c0,0.96,0.064,1.664,0.416,2.176c0.288,0.416,0.736,0.672,1.504,0.672c0.8,0,1.472-0.192,2.048-0.384c0.128-0.032,0.224-0.064,0.32-0.064c0.224,0,0.352,0.128,0.416,0.384l0.32,1.6c0.032,0.096,0.032,0.128,0.032,0.192z M104.696,109.504c0,4.608-2.816,8.16-7.808,8.16c-5.216,0-7.616-3.52-7.616-8.192c0-4.608,2.816-8.128,7.808-8.128c5.216,0,7.616,3.456,7.616,8.16z M100.696,109.504c0-2.624-0.832-5.12-3.648-5.12c-2.848,0-3.776,2.464-3.776,5.024c0,2.624,0.8,5.216,3.648,5.216c2.816,0,3.776-2.496,3.776-5.12z M123.528,116.224c0,5.184-2.208,8.064-7.584,8.064c-1.568,0-3.2-0.32-4.736-0.992c-0.352-0.16-0.512-0.352-0.512-0.64c0-0.16,0.064-0.288,0.096-0.416l0.448-1.408c0.128-0.352,0.256-0.576,0.48-0.576c0.16,0,0.32,0.064,0.48,0.128c1.152,0.48,2.464,0.832,3.584,0.832c3.2,0,3.872-1.696,3.872-4.256l0-1.28c-0.96,0.928-2.752,1.632-4.16,1.632c-1.984,0-3.584-0.64-4.704-1.824c-1.344-1.376-2.016-3.456-2.016-5.792c0-4.288,2.496-8.32,7.136-8.32c0.768,0,1.568,0.192,2.304,0.512c0.608,0.256,1.248,0.736,1.632,1.28l0.064-0.832c0.032-0.416,0.256-0.576,0.736-0.576l2.112,0c0.576,0,0.768,0.224,0.768,0.768l0,13.696z M119.656,112.64l0-6.592c-0.64-0.864-1.888-1.568-3.104-1.568c-0.992,0-1.792,0.384-2.368,0.928c-0.992,0.96-1.376,2.592-1.376,4.064c0,1.408,0.32,2.912,1.28,3.84c0.576,0.576,1.408,0.864,2.272,0.864c1.248,0,2.656-0.736,3.296-1.536z M138.232,101.888c0,0.096,0,0.192-0.032,0.288l-0.352,2.272c-0.032,0.288-0.192,0.416-0.448,0.416l-0.128,0c-0.256-0.064-0.576-0.096-0.864-0.096c-1.088,0-2.272,0.576-3.072,1.536l0,10.176c0,0.512-0.224,0.8-0.768,0.8l-2.336,0c-0.512,0-0.768-0.256-0.768-0.8l0-9.984l0-3.936c0-0.64,0.32-0.8,0.8-0.8l2.048,0c0.512,0,0.8,0.16,0.8,0.608l0.032,1.024c0.992-1.248,2.08-2.048,3.872-2.048c0.256,0,0.608,0.064,0.896,0.128c0.224,0.064,0.32,0.16,0.32,0.416z M157.48,116.672c0,0.384-0.256,0.608-0.64,0.608l-1.536,0c-1.664,0-2.4-0.8-2.624-1.888l-0.064,0c-0.8,1.184-2.88,2.272-4.64,2.272c-4.512,0-6.56-3.712-6.56-7.872c0-5.536,3.328-8.448,6.912-8.448c1.696,0,3.296,0.768,4.096,1.856l0.064-0.864c0.032-0.352,0.288-0.576,0.672-0.576l2.24,0c0.416,0,0.672,0.224,0.672,0.704l0,11.104c0,0.448,0.064,0.768,0.192,0.928c0.096,0.096,0.224,0.128,0.384,0.128l0.256,0c0.384,0,0.576,0.128,0.576,0.544l0,1.504z M152.2,112.32l0-6.176c-0.64-0.928-1.952-1.632-3.168-1.632c-1.952,0-3.616,1.664-3.616,5.024c0,2.688,1.024,4.96,3.392,4.96c1.568,0,2.912-1.184,3.392-2.176z M176.888,109.312c0,2.432-0.736,4.64-2.08,6.208c-1.184,1.344-2.848,2.176-4.928,2.176c-1.472,0-2.944-0.544-3.872-1.504l0,7.168c0,0.64-0.288,0.832-0.832,0.832l-2.24,0c-0.512,0-0.768-0.288-0.768-0.832l0-20.864c0-0.544,0.256-0.736,0.768-0.736l1.92,0c0.544,0,0.832,0.128,0.864,0.608l0.032,0.864c0.928-1.056,2.752-1.856,4.48-1.856c2.112,0,3.584,0.8,4.64,1.952c1.376,1.504,2.016,3.744,2.016,5.984z M172.856,109.504c0-1.504-0.288-2.816-0.928-3.712c-0.608-0.864-1.504-1.312-2.624-1.312c-1.184,0-2.656,0.768-3.296,1.568l0,6.976c0.64,0.864,1.92,1.568,3.136,1.568c1.12,0,2.016-0.512,2.56-1.184c0.8-0.992,1.152-2.336,1.152-3.904z M195.88,116.64c0,0.48-0.096,0.64-0.512,0.64l-2.816,0c-0.448,0-0.544-0.128-0.544-0.64l0-8.896c0-1.728-0.48-3.008-2.4-3.008c-1.248,0-2.848,0.672-3.84,1.536l0,10.368c0,0.48-0.128,0.64-0.608,0.64l-2.752,0c-0.384,0-0.512-0.16-0.512-0.576l0-21.152c0-0.576,0.256-0.736,0.704-0.8l2.208-0.288c0.128-0.032,0.288-0.032,0.416-0.032c0.352,0,0.544,0.16,0.544,0.608l0,8.032c1.344-1.12,3.36-1.728,5.056-1.728c3.584,0,5.056,2.272,5.056,5.728l0,9.568z M215.384,109.472c0,0.768-0.256,0.928-1.056,0.928l-9.376,0c0.256,2.464,2.048,4.16,4.576,4.16c1.344,0,2.752-0.32,3.936-0.768c0.128-0.032,0.224-0.096,0.352-0.096c0.224,0,0.384,0.128,0.448,0.384l0.448,1.632c0.032,0.16,0.064,0.288,0.064,0.384c0,0.224-0.128,0.384-0.512,0.544c-1.568,0.704-3.712,1.024-5.376,1.024c-5.024,0-8-3.2-8-8.192c0-4.8,3.168-8.128,7.936-8.128c1.952,0,3.552,0.736,4.672,1.92c1.472,1.536,1.888,3.552,1.888,5.728l0,0.48z M211.576,107.872l0-0.352c-0.064-1.664-1.024-3.2-2.976-3.2c-2.08,0-3.328,1.664-3.584,3.552l6.56,0z M228.968,101.888c0,0.096,0,0.192-0.032,0.288l-0.352,2.272c-0.032,0.288-0.192,0.416-0.448,0.416l-0.128,0c-0.256-0.064-0.576-0.096-0.864-0.096c-1.088,0-2.272,0.576-3.072,1.536l0,10.176c0,0.512-0.224,0.8-0.768,0.8l-2.336,0c-0.512,0-0.768-0.256-0.768-0.8l0-9.984l0-3.936c0-0.64,0.32-0.8,0.8-0.8l2.048,0c0.512,0,0.8,0.16,0.8,0.608l0.032,1.024c0.992-1.248,2.08-2.048,3.872-2.048c0.256,0,0.608,0.064,0.896,0.128c0.224,0.064,0.32,0.16,0.32,0.416z"/><path fill="#" d=""/></svg>
